<?xml version="1.0" encoding="UTF-8" standalone="no"?>
<!-- Created with Inkscape (http://www.inkscape.org/) -->

<svg
   xmlns:dc="http://purl.org/dc/elements/1.1/"
   xmlns:cc="http://creativecommons.org/ns#"
   xmlns:rdf="http://www.w3.org/1999/02/22-rdf-syntax-ns#"
   xmlns:svg="http://www.w3.org/2000/svg"
   xmlns="http://www.w3.org/2000/svg"
   xmlns:sodipodi="http://sodipodi.sourceforge.net/DTD/sodipodi-0.dtd"
   xmlns:inkscape="http://www.inkscape.org/namespaces/inkscape"
   width="100mm"
   height="100mm"
   viewBox="0 0 100 100"
   version="1.1"
   id="svg8"
   inkscape:version="0.92.2 5c3e80d, 2017-08-06"
   sodipodi:docname="logo.svg"
   inkscape:export-filename="/Users/cangiani/Desktop/logo.png"
   inkscape:export-xdpi="0.25400001"
   inkscape:export-ydpi="0.25400001">
  <defs
     id="defs2" />
  <sodipodi:namedview
     id="base"
     pagecolor="#ffffff"
     bordercolor="#666666"
     borderopacity="1.0"
     inkscape:pageopacity="0.0"
     inkscape:pageshadow="2"
     inkscape:zoom="1.4"
     inkscape:cx="68.204957"
     inkscape:cy="164.98047"
     inkscape:document-units="mm"
     inkscape:current-layer="layer1"
     showgrid="false"
     inkscape:window-width="1920"
     inkscape:window-height="1031"
     inkscape:window-x="0"
     inkscape:window-y="1"
     inkscape:window-maximized="1" />
  <metadata
     id="metadata5">
    <rdf:RDF>
      <cc:Work
         rdf:about="">
        <dc:format>image/svg+xml</dc:format>
        <dc:type
           rdf:resource="http://purl.org/dc/dcmitype/StillImage" />
        <dc:title></dc:title>
      </cc:Work>
    </rdf:RDF>
  </metadata>
  <g
     inkscape:label="Layer 1"
     inkscape:groupmode="layer"
     id="layer1"
     transform="translate(0,-197)">
    <path
       sodipodi:type="spiral"
       style="fill:none;fill-rule:evenodd;stroke:#800000;stroke-width:3;stroke-miterlimit:4;stroke-dasharray:none;stroke-linecap:round;fill-opacity:1;stroke-opacity:1"
       id="path815"
       sodipodi:cx="50.081848"
       sodipodi:cy="247.10715"
       sodipodi:expansion="1"
       sodipodi:revolution="3"
       sodipodi:radius="48.233822"
       sodipodi:argument="-17.992062"
       sodipodi:t0="0"
       d="m 50.081848,247.10715 c 1.582421,1.82878 -1.684451,3.03533 -3.039556,2.63008 -3.672251,-1.09817 -3.926966,-5.92185 -2.220618,-8.7092 3.052255,-4.9859 10.050775,-5.09038 14.378843,-1.81114 6.351613,4.8124 6.29295,14.23739 1.40168,20.04848 -6.519294,7.74527 -18.444717,7.51248 -25.71813,0.99221 -9.152849,-8.20509 -8.740845,-22.66196 -0.582742,-31.38777 9.880556,-10.56813 26.884804,-9.97433 37.057417,-0.17327 11.988073,11.55021 11.211038,31.11114 -0.236197,42.72706 -13.216285,13.41104 -35.339805,12.44989 -48.396703,-0.64567 -14.836078,-14.88 -13.6902474,-39.57011 1.055135,-54.06635 16.54209,-16.26258 43.801605,-14.93169 59.73599,1.46461 17.690183,18.20299 16.173952,48.034 -1.874073,65.40563" />
    <path
       d="m 50.081848,247.10715 c 1.582421,1.82878 -1.684451,3.03533 -3.039556,2.63008 -3.672251,-1.09817 -3.926966,-5.92185 -2.220618,-8.7092 3.052255,-4.9859 10.050775,-5.09038 14.378843,-1.81114 6.351613,4.8124 6.29295,14.23739 1.40168,20.04848 -6.519294,7.74527 -18.444717,7.51248 -25.71813,0.99221 -9.152849,-8.20509 -8.740845,-22.66196 -0.582742,-31.38777 9.880556,-10.56813 26.884804,-9.97433 37.057417,-0.17327 11.988073,11.55021 11.211038,31.11114 -0.236197,42.72706 -13.216285,13.41104 -35.339805,12.44989 -48.396703,-0.64567 -14.836078,-14.88 -13.6902474,-39.57011 1.055135,-54.06635 16.54209,-16.26258 43.801605,-14.93169 59.73599,1.46461 17.690183,18.20299 16.173952,48.034 -1.874073,65.40563"
       sodipodi:t0="0"
       sodipodi:argument="-17.992062"
       sodipodi:radius="48.233822"
       sodipodi:revolution="3"
       sodipodi:expansion="1"
       sodipodi:cy="247.10715"
       sodipodi:cx="50.081848"
       id="path856"
       style="fill:none;fill-rule:evenodd;stroke:#800000;stroke-width:3;stroke-miterlimit:4;stroke-dasharray:none;stroke-linecap:round;fill-opacity:1;stroke-opacity:1"
       sodipodi:type="spiral" />
    <path
       sodipodi:type="spiral"
       style="fill:none;fill-opacity:1;fill-rule:evenodd;stroke:#650000;stroke-width:3;stroke-linecap:round;stroke-miterlimit:4;stroke-dasharray:none;stroke-opacity:1"
       id="path858"
       sodipodi:cx="41.95536"
       sodipodi:cy="251.0759"
       sodipodi:expansion="1"
       sodipodi:revolution="3"
       sodipodi:radius="48.233822"
       sodipodi:argument="-17.992062"
       sodipodi:t0="0"
       d="m 41.95536,251.0759 c 1.582421,1.82878 -1.684451,3.03533 -3.039556,2.63008 -3.67225,-1.09817 -3.926965,-5.92185 -2.220618,-8.7092 3.052255,-4.9859 10.050776,-5.09038 14.378843,-1.81114 6.351613,4.8124 6.29295,14.23739 1.40168,20.04848 -6.519293,7.74527 -18.444717,7.51248 -25.71813,0.99221 -9.152849,-8.20509 -8.740844,-22.66196 -0.582742,-31.38777 9.880556,-10.56813 26.884804,-9.97433 37.057417,-0.17327 11.988073,11.55021 11.211039,31.11114 -0.236196,42.72706 -13.216286,13.41104 -35.339806,12.44989 -48.396704,-0.64567 -14.83607774,-14.88 -13.69024716,-39.57011 1.055135,-54.06635 16.54209,-16.26258 43.801606,-14.93169 59.735991,1.46461 17.690187,18.20299 16.173952,48.034 -1.874074,65.40563"
       transform="rotate(20.923187,45.951922,248.35219)" />
    <path
       transform="rotate(20.923187,62.643511,258.50032)"
       d="m 41.95536,251.0759 c 1.582421,1.82878 -1.684451,3.03533 -3.039556,2.63008 -3.67225,-1.09817 -3.926965,-5.92185 -2.220618,-8.7092 3.052255,-4.9859 10.050776,-5.09038 14.378843,-1.81114 6.351613,4.8124 6.29295,14.23739 1.40168,20.04848 -6.519293,7.74527 -18.444717,7.51248 -25.71813,0.99221 -9.152849,-8.20509 -8.740844,-22.66196 -0.582742,-31.38777 9.880556,-10.56813 26.884804,-9.97433 37.057417,-0.17327 11.988073,11.55021 11.211039,31.11114 -0.236196,42.72706 -13.216286,13.41104 -35.339806,12.44989 -48.396704,-0.64567 -14.83607774,-14.88 -13.69024716,-39.57011 1.055135,-54.06635 16.54209,-16.26258 43.801606,-14.93169 59.735991,1.46461 17.690187,18.20299 16.173952,48.034 -1.874074,65.40563"
       sodipodi:t0="0"
       sodipodi:argument="-17.992062"
       sodipodi:radius="48.233822"
       sodipodi:revolution="3"
       sodipodi:expansion="1"
       sodipodi:cy="251.0759"
       sodipodi:cx="41.95536"
       id="path860"
       style="fill:none;fill-opacity:1;fill-rule:evenodd;stroke:#654800;stroke-width:3;stroke-linecap:round;stroke-miterlimit:4;stroke-dasharray:none;stroke-opacity:1"
       sodipodi:type="spiral" />
  </g>
</svg>
